# xmcd CD database file
#
# Track frame offsets:
#	150
#	13834
#	38062
#	59270
#	75350
#	94945
#	102822
#	125487
#	145617
#	171660
#	218895
#	243962
#	267537
#
# Disc length: 3701 seconds
#
# Revision: 1
# Processed by: cddbd v1.5.2PL0 Copyright (c) Steve Scherf et al.
# Submitted via: CDex 1.51
#
DISCID=b20e730d
DTITLE=Various Artist - Dreamworld - Music Inspired by The Matrix
DYEAR=2003
DGENRE=Techno-Industrial
TTITLE0=the question
TTITLE1=the blue pill
TTITLE2=hidden hand
TTITLE3=love me unreality
TTITLE4=sheeple
TTITLE5=interlude
TTITLE6=love is everything
TTITLE7=the revolution
TTITLE8=bloodline
TTITLE9=nature vs technology
TTITLE10=engineered consciousness
TTITLE11=watchers
TTITLE12=the final message
EXTD=YEAR: 2003
EXTT0=
EXTT1=
EXTT2=
EXTT3=
EXTT4=
EXTT5=
EXTT6=
EXTT7=
EXTT8=
EXTT9=
EXTT10=
EXTT11=
EXTT12=
PLAYORDER=
